<?xml version="1.0" encoding="utf-8"?>
<!-- Generator: Adobe Illustrator 15.0.2, SVG Export Plug-In . SVG Version: 6.00 Build 0)  -->
<!DOCTYPE svg PUBLIC "-//W3C//DTD SVG 1.1//EN" "http://www.w3.org/Graphics/SVG/1.1/DTD/svg11.dtd">
<svg version="1.1" id="Layer_1" xmlns="http://www.w3.org/2000/svg" xmlns:xlink="http://www.w3.org/1999/xlink" x="0px" y="0px"
	 width="100px" height="100px" viewBox="0 0 100 100" enable-background="new 0 0 100 100" xml:space="preserve">
<g>
	<path fill-rule="evenodd" clip-rule="evenodd" fill="#D1E9E6" d="M42.833,55.899h13.236c0.36,0,0.652,0.294,0.652,0.653l0,0
		c0,0.357-0.292,0.651-0.652,0.651H42.833c-0.359,0-0.652-0.294-0.652-0.651l0,0C42.181,56.193,42.474,55.899,42.833,55.899"/>
	<circle fill="#425EBA" cx="49.852" cy="48.852" r="46.147"/>
	<path fill="#FFFFFF" d="M73.04,81.375c-2.494,0-4.615,1.574-5.44,3.781c-0.247-0.087-0.508-0.144-0.784-0.144
		c-1.305,0-2.362,1.058-2.362,2.362c0,0.007,0.002,0.014,0.002,0.021c-0.138-0.01-0.274-0.021-0.415-0.021
		c-0.293,0-0.578,0.028-0.858,0.07c-0.797-2.26-2.945-3.883-5.478-3.883c-1.092,0-2.11,0.307-2.983,0.831l-2.497-18.508h-5.407
		l-3.36,22.428c-0.255-0.067-0.523-0.102-0.799-0.102c-1.017,0-1.912,0.479-2.502,1.214c-0.983-1.816-2.905-3.051-5.115-3.051
		c-0.426,0-0.84,0.049-1.24,0.136c-0.43-3.804-3.654-6.761-7.572-6.761c-1.264,0-2.453,0.313-3.502,0.856
		c-0.957-1.896-2.918-3.201-5.188-3.201c-3.211,0-5.813,2.603-5.813,5.813s2.602,5.813,5.813,5.813c0.418,0,0.824-0.046,1.218-0.13
		c0.706,3.479,3.783,6.1,7.472,6.1c1.211,0,2.352-0.29,3.368-0.792C30.417,96.42,32.542,98,35.04,98c0.85,0,1.653-0.187,2.381-0.514
		c0.451,0.24,0.957,0.389,1.504,0.389c0.148,0,0.295-0.011,0.437-0.032c0.581,0.566,1.372,0.913,2.247,0.913
		c1.245,0,2.326-0.707,2.86-1.74c0.575,0.532,1.344,0.859,2.19,0.859c0.936,0,1.777-0.399,2.366-1.037
		c0.589,0.638,1.431,1.037,2.366,1.037c0.781,0,1.498-0.28,2.055-0.741c0.559,0.461,1.275,0.741,2.056,0.741
		c1.028,0,1.944-0.482,2.534-1.233c0.533,0.42,1.203,0.671,1.931,0.685C61.015,98.36,62.451,99,64.04,99
		c3.21,0,5.813-2.603,5.813-5.813c0-0.424-0.048-0.836-0.135-1.234C70.66,92.611,71.804,93,73.04,93c3.21,0,5.813-2.603,5.813-5.813
		S76.25,81.375,73.04,81.375z"/>
	<path fill="#F7AC13" d="M49.366,86.19c9.154-11.122,3.402-15.997,3.402-15.997h-3.402h-0.031h-3.402c0,0-5.753,4.875,3.402,15.997
		v0.04c0.004-0.007,0.01-0.011,0.015-0.02c0.007,0.009,0.012,0.013,0.017,0.02V86.19z"/>
	
		<rect x="43.49" y="66.352" transform="matrix(-0.9999 0.0135 -0.0135 -0.9999 100.0959 135.975)" fill="#39B8B9" width="12.195" height="3.949"/>
	<path fill="#EB5655" d="M49.159,49.508c-11.756,0.161-21.158,9.65-20.998,21.197c0.039,2.686,0.593,5.237,1.563,7.584
		c2.991-7.833,10.623-13.452,19.648-13.573c9.025-0.118,16.812,5.294,20.016,13.038c0.904-2.366,1.391-4.937,1.354-7.621
		C70.58,58.585,60.919,49.352,49.159,49.508"/>
	<path fill="#FDFDFD" d="M35.912,42.884c0.139,9.854,2.388,18.846,6.003,25.791c2.358-0.77,4.877-1.208,7.494-1.241
		c2.618-0.035,5.146,0.337,7.529,1.04c3.418-7.039,5.416-16.088,5.279-25.943c-0.219-15.656-5.756-29.138-13.651-35.683
		C40.856,13.602,35.694,27.229,35.912,42.884"/>
	<path fill="#39B8B9" d="M39.069,22.12l-0.578,1.819c0,0,11.234-1.404,20.896-0.072l-0.904-2.007
		C58.483,21.86,45.507,20.456,39.069,22.12"/>
	<path fill="#EB5655" d="M46.244,63.195c0.09,6.512,1.315,12.134,3.028,14.88c1.635-2.793,2.705-8.443,2.613-14.956
		c-0.088-6.51-1.316-12.131-3.027-14.879C47.222,51.034,46.153,56.686,46.244,63.195"/>
	<path fill="#EB5655" d="M39.069,22.12c3.158-0.25,6.396-0.406,9.703-0.452c3.305-0.041,6.549,0.026,9.711,0.192
		c-2.41-6.408-5.846-11.637-9.917-15.013C44.591,10.331,41.302,15.647,39.069,22.12"/>
	<path fill="#EB5655" d="M48.966,29.718l-0.079,0.002c-1.559,0.021-3.015,0.637-4.103,1.734c-1.086,1.099-1.674,2.544-1.653,4.073
		c0.044,3.115,2.66,5.651,5.833,5.651l0.079-0.001c3.217-0.043,5.798-2.65,5.753-5.809C54.753,32.254,52.138,29.718,48.966,29.718"
		/>
	<path fill="#39B8B9" d="M48.903,31.113c-2.434,0.031-4.389,2.004-4.355,4.396c0.034,2.395,2.042,4.309,4.477,4.275
		c2.435-0.032,4.389-2.002,4.355-4.396C53.347,33,51.338,31.079,48.903,31.113"/>
</g>
</svg>
