<?xml version="1.0" encoding="utf-8"?>
<!-- Generator: Adobe Illustrator 16.0.0, SVG Export Plug-In . SVG Version: 6.00 Build 0)  -->
<!DOCTYPE svg PUBLIC "-//W3C//DTD SVG 1.1//EN" "http://www.w3.org/Graphics/SVG/1.1/DTD/svg11.dtd">
<svg version="1.1" id="Layer_1" xmlns="http://www.w3.org/2000/svg" xmlns:xlink="http://www.w3.org/1999/xlink" x="0px" y="0px"
	 width="100px" height="100px" viewBox="0 0 100 100" enable-background="new 0 0 100 100" xml:space="preserve">
<path fill="#EFC75E" d="M15.621,35.977h67.455c3.102,0,5.621,2.521,5.621,5.622V89.38c0,3.106-2.52,5.62-5.621,5.62H15.621
	C12.52,95,10,92.486,10,89.38V41.599C10,38.494,12.52,35.977,15.621,35.977z"/>
<path fill="#D7B354" d="M83.076,35.977H15.621c-3.102,0-5.621,2.521-5.621,5.622v5.621c0,3.107,2.52,5.621,5.621,5.621h67.455
	c3.102,0,5.621-2.514,5.621-5.621v-5.621C88.697,38.494,86.178,35.977,83.076,35.977z"/>
<g>
	<path fill="#B29446" d="M26.864,38.788c-4.658,0-8.433,2.52-8.433,5.621c0,3.106,3.774,5.621,8.433,5.621
		c4.657,0,8.432-2.515,8.432-5.621C35.296,41.305,31.521,38.788,26.864,38.788z M71.833,38.788c-4.654,0-8.432,2.52-8.432,5.621
		c0,3.106,3.777,5.621,8.432,5.621c4.658,0,8.433-2.515,8.433-5.621C80.266,41.305,76.491,38.788,71.833,38.788z"/>
</g>
<path fill="#D1D5D7" d="M49.349,5C33.824,5,21.243,17.588,21.243,33.112v11.356c0,1.555,2.519,2.812,5.621,2.812
	c3.102,0,5.62-1.257,5.62-2.812V32.305c0-8.871,7.554-16.057,16.864-16.057c9.315,0,16.864,7.186,16.864,16.057v12.164
	c0,1.555,2.519,2.812,5.62,2.812c3.103,0,5.622-1.257,5.622-2.812V33.112C77.455,17.588,64.873,5,49.349,5z"/>
<path fill="#DADDDF" d="M49.349,10.621c-15.524,0-22.484,12.588-22.484,28.112v8.547c3.102,0,5.62-1.257,5.62-2.812V32.305
	c0-8.871,7.554-16.057,16.864-16.057c9.315,0,16.864,7.186,16.864,16.057v12.164c0,1.555,2.519,2.812,5.62,2.812v-8.547
	C71.833,23.209,64.873,10.621,49.349,10.621z"/>
</svg>
